<mxfile host="app.diagrams.net" modified="2024-04-11T11:30:47.490Z" agent="Mozilla/5.0 (Windows NT 10.0; Win64; x64) AppleWebKit/537.36 (KHTML, like Gecko) Chrome/123.0.0.0 Safari/537.36" etag="35XdgRPHZ7V0YfZ49M8F" version="24.2.1" type="github">
  <diagram id="prtHgNgQTEPvFCAcTncT" name="Page-1">
    <mxGraphModel dx="1500" dy="757" grid="1" gridSize="10" guides="1" tooltips="1" connect="0" arrows="1" fold="1" page="1" pageScale="1" pageWidth="827" pageHeight="1169" math="0" shadow="0">
      <root>
        <mxCell id="0" />
        <mxCell id="1" parent="0" />
        <mxCell id="wS6vwOR5j8B-GNVdcnLV-2" value="&lt;span style=&quot;color: rgb(38, 38, 38); font-family: &amp;quot;Chinese Quote&amp;quot;, -apple-system, BlinkMacSystemFont, &amp;quot;Segoe UI&amp;quot;, Roboto, &amp;quot;PingFang SC&amp;quot;, &amp;quot;Hiragino Sans GB&amp;quot;, &amp;quot;Microsoft YaHei&amp;quot;, &amp;quot;Helvetica Neue&amp;quot;, Helvetica, Arial, sans-serif; font-size: 14px; font-style: normal; font-variant-ligatures: normal; font-variant-caps: normal; font-weight: 400; letter-spacing: normal; orphans: 2; text-align: start; text-indent: 0px; text-transform: none; widows: 2; word-spacing: 0px; -webkit-text-stroke-width: 0px; white-space: normal; text-decoration-thickness: initial; text-decoration-style: initial; text-decoration-color: initial; display: inline !important; float: none;&quot;&gt;&lt;/span&gt;" style="text;whiteSpace=wrap;html=1;" parent="1" vertex="1">
          <mxGeometry x="670" y="140" width="30" height="20" as="geometry" />
        </mxCell>
        <mxCell id="wS6vwOR5j8B-GNVdcnLV-8" value="" style="edgeStyle=orthogonalEdgeStyle;rounded=0;orthogonalLoop=1;jettySize=auto;html=1;" parent="1" source="wS6vwOR5j8B-GNVdcnLV-4" target="wS6vwOR5j8B-GNVdcnLV-7" edge="1">
          <mxGeometry relative="1" as="geometry" />
        </mxCell>
        <mxCell id="wS6vwOR5j8B-GNVdcnLV-4" value="" style="ellipse;whiteSpace=wrap;html=1;aspect=fixed;" parent="1" vertex="1">
          <mxGeometry x="860" y="40" width="80" height="80" as="geometry" />
        </mxCell>
        <mxCell id="wS6vwOR5j8B-GNVdcnLV-50" style="edgeStyle=orthogonalEdgeStyle;rounded=0;orthogonalLoop=1;jettySize=auto;html=1;exitX=0.5;exitY=1;exitDx=0;exitDy=0;" parent="1" source="wS6vwOR5j8B-GNVdcnLV-7" target="wS6vwOR5j8B-GNVdcnLV-33" edge="1">
          <mxGeometry relative="1" as="geometry">
            <Array as="points">
              <mxPoint x="1060" y="160" />
              <mxPoint x="440" y="160" />
            </Array>
          </mxGeometry>
        </mxCell>
        <mxCell id="wS6vwOR5j8B-GNVdcnLV-180" style="edgeStyle=orthogonalEdgeStyle;rounded=0;orthogonalLoop=1;jettySize=auto;html=1;exitX=0.5;exitY=1;exitDx=0;exitDy=0;" parent="1" source="wS6vwOR5j8B-GNVdcnLV-7" target="wS6vwOR5j8B-GNVdcnLV-9" edge="1">
          <mxGeometry relative="1" as="geometry">
            <Array as="points">
              <mxPoint x="1060" y="160" />
              <mxPoint x="176" y="160" />
            </Array>
          </mxGeometry>
        </mxCell>
        <mxCell id="6IFdjQp1csUlXMz1_ElO-15" style="edgeStyle=orthogonalEdgeStyle;rounded=0;orthogonalLoop=1;jettySize=auto;html=1;" parent="1" source="wS6vwOR5j8B-GNVdcnLV-7" target="wS6vwOR5j8B-GNVdcnLV-147" edge="1">
          <mxGeometry relative="1" as="geometry">
            <Array as="points">
              <mxPoint x="1060" y="160" />
              <mxPoint x="720" y="160" />
            </Array>
          </mxGeometry>
        </mxCell>
        <mxCell id="6IFdjQp1csUlXMz1_ElO-17" style="edgeStyle=orthogonalEdgeStyle;rounded=0;orthogonalLoop=1;jettySize=auto;html=1;" parent="1" source="wS6vwOR5j8B-GNVdcnLV-7" target="wS6vwOR5j8B-GNVdcnLV-150" edge="1">
          <mxGeometry relative="1" as="geometry">
            <Array as="points">
              <mxPoint x="1060" y="160" />
              <mxPoint x="1306" y="160" />
            </Array>
          </mxGeometry>
        </mxCell>
        <mxCell id="6IFdjQp1csUlXMz1_ElO-18" style="edgeStyle=orthogonalEdgeStyle;rounded=0;orthogonalLoop=1;jettySize=auto;html=1;" parent="1" source="wS6vwOR5j8B-GNVdcnLV-7" target="wS6vwOR5j8B-GNVdcnLV-151" edge="1">
          <mxGeometry relative="1" as="geometry">
            <Array as="points">
              <mxPoint x="1060" y="160" />
              <mxPoint x="1596" y="160" />
            </Array>
          </mxGeometry>
        </mxCell>
        <mxCell id="6IFdjQp1csUlXMz1_ElO-19" style="edgeStyle=orthogonalEdgeStyle;rounded=0;orthogonalLoop=1;jettySize=auto;html=1;" parent="1" source="wS6vwOR5j8B-GNVdcnLV-7" target="wS6vwOR5j8B-GNVdcnLV-152" edge="1">
          <mxGeometry relative="1" as="geometry">
            <Array as="points">
              <mxPoint x="1060" y="160" />
              <mxPoint x="1886" y="160" />
            </Array>
          </mxGeometry>
        </mxCell>
        <mxCell id="6IFdjQp1csUlXMz1_ElO-20" style="edgeStyle=orthogonalEdgeStyle;rounded=0;orthogonalLoop=1;jettySize=auto;html=1;" parent="1" source="wS6vwOR5j8B-GNVdcnLV-7" target="wS6vwOR5j8B-GNVdcnLV-153" edge="1">
          <mxGeometry relative="1" as="geometry">
            <Array as="points">
              <mxPoint x="1060" y="160" />
              <mxPoint x="2166" y="160" />
            </Array>
          </mxGeometry>
        </mxCell>
        <mxCell id="wS6vwOR5j8B-GNVdcnLV-7" value="登录" style="rounded=1;whiteSpace=wrap;html=1;fillColor=#d5e8d4;strokeColor=#82b366;" parent="1" vertex="1">
          <mxGeometry x="1000" y="50" width="120" height="60" as="geometry" />
        </mxCell>
        <mxCell id="wS6vwOR5j8B-GNVdcnLV-12" value="" style="edgeStyle=orthogonalEdgeStyle;rounded=0;orthogonalLoop=1;jettySize=auto;html=1;" parent="1" source="wS6vwOR5j8B-GNVdcnLV-9" target="wS6vwOR5j8B-GNVdcnLV-11" edge="1">
          <mxGeometry relative="1" as="geometry" />
        </mxCell>
        <mxCell id="wS6vwOR5j8B-GNVdcnLV-9" value="进入信息快捷查看主页" style="rounded=1;whiteSpace=wrap;html=1;fillColor=#d5e8d4;strokeColor=#82b366;" parent="1" vertex="1">
          <mxGeometry x="116" y="220" width="120" height="60" as="geometry" />
        </mxCell>
        <mxCell id="wS6vwOR5j8B-GNVdcnLV-22" value="" style="edgeStyle=orthogonalEdgeStyle;rounded=0;orthogonalLoop=1;jettySize=auto;html=1;entryX=0.5;entryY=0;entryDx=0;entryDy=0;" parent="1" source="wS6vwOR5j8B-GNVdcnLV-11" target="wS6vwOR5j8B-GNVdcnLV-30" edge="1">
          <mxGeometry relative="1" as="geometry">
            <mxPoint x="176" y="490" as="targetPoint" />
          </mxGeometry>
        </mxCell>
        <mxCell id="wS6vwOR5j8B-GNVdcnLV-11" value="查看信息" style="whiteSpace=wrap;html=1;rounded=1;fillColor=#d5e8d4;strokeColor=#82b366;" parent="1" vertex="1">
          <mxGeometry x="116" y="360" width="120" height="60" as="geometry" />
        </mxCell>
        <mxCell id="6IFdjQp1csUlXMz1_ElO-2" value="" style="edgeStyle=orthogonalEdgeStyle;rounded=0;orthogonalLoop=1;jettySize=auto;html=1;" parent="1" source="wS6vwOR5j8B-GNVdcnLV-30" target="6IFdjQp1csUlXMz1_ElO-1" edge="1">
          <mxGeometry relative="1" as="geometry" />
        </mxCell>
        <mxCell id="6IFdjQp1csUlXMz1_ElO-6" value="" style="edgeStyle=orthogonalEdgeStyle;rounded=0;orthogonalLoop=1;jettySize=auto;html=1;" parent="1" source="wS6vwOR5j8B-GNVdcnLV-30" target="wS6vwOR5j8B-GNVdcnLV-175" edge="1">
          <mxGeometry relative="1" as="geometry" />
        </mxCell>
        <mxCell id="wS6vwOR5j8B-GNVdcnLV-30" value="" style="rhombus;whiteSpace=wrap;html=1;fillColor=#fff2cc;strokeColor=#d6b656;" parent="1" vertex="1">
          <mxGeometry x="136" y="490" width="80" height="80" as="geometry" />
        </mxCell>
        <mxCell id="6IFdjQp1csUlXMz1_ElO-128" value="" style="edgeStyle=orthogonalEdgeStyle;rounded=0;orthogonalLoop=1;jettySize=auto;html=1;" parent="1" source="wS6vwOR5j8B-GNVdcnLV-33" target="6IFdjQp1csUlXMz1_ElO-22" edge="1">
          <mxGeometry relative="1" as="geometry" />
        </mxCell>
        <mxCell id="wS6vwOR5j8B-GNVdcnLV-33" value="进入提醒事项管理页面" style="rounded=1;whiteSpace=wrap;html=1;fillColor=#d5e8d4;strokeColor=#82b366;" parent="1" vertex="1">
          <mxGeometry x="386" y="220" width="120" height="60" as="geometry" />
        </mxCell>
        <mxCell id="6IFdjQp1csUlXMz1_ElO-129" value="" style="edgeStyle=orthogonalEdgeStyle;rounded=0;orthogonalLoop=1;jettySize=auto;html=1;" parent="1" source="wS6vwOR5j8B-GNVdcnLV-147" target="6IFdjQp1csUlXMz1_ElO-44" edge="1">
          <mxGeometry relative="1" as="geometry" />
        </mxCell>
        <mxCell id="wS6vwOR5j8B-GNVdcnLV-147" value="进入今日代办管理页面" style="rounded=1;whiteSpace=wrap;html=1;fillColor=#d5e8d4;strokeColor=#82b366;" parent="1" vertex="1">
          <mxGeometry x="666" y="220" width="120" height="60" as="geometry" />
        </mxCell>
        <mxCell id="6IFdjQp1csUlXMz1_ElO-130" value="" style="edgeStyle=orthogonalEdgeStyle;rounded=0;orthogonalLoop=1;jettySize=auto;html=1;" parent="1" source="wS6vwOR5j8B-GNVdcnLV-149" target="6IFdjQp1csUlXMz1_ElO-57" edge="1">
          <mxGeometry relative="1" as="geometry" />
        </mxCell>
        <mxCell id="wS6vwOR5j8B-GNVdcnLV-149" value="进入活动清单管理页面" style="rounded=1;whiteSpace=wrap;html=1;fillColor=#d5e8d4;strokeColor=#82b366;" parent="1" vertex="1">
          <mxGeometry x="942" y="220" width="120" height="60" as="geometry" />
        </mxCell>
        <mxCell id="6IFdjQp1csUlXMz1_ElO-131" value="" style="edgeStyle=orthogonalEdgeStyle;rounded=0;orthogonalLoop=1;jettySize=auto;html=1;" parent="1" source="wS6vwOR5j8B-GNVdcnLV-150" target="6IFdjQp1csUlXMz1_ElO-70" edge="1">
          <mxGeometry relative="1" as="geometry" />
        </mxCell>
        <mxCell id="wS6vwOR5j8B-GNVdcnLV-150" value="进入财务管理页面" style="rounded=1;whiteSpace=wrap;html=1;fillColor=#d5e8d4;strokeColor=#82b366;" parent="1" vertex="1">
          <mxGeometry x="1246" y="220" width="120" height="60" as="geometry" />
        </mxCell>
        <mxCell id="6IFdjQp1csUlXMz1_ElO-132" value="" style="edgeStyle=orthogonalEdgeStyle;rounded=0;orthogonalLoop=1;jettySize=auto;html=1;" parent="1" source="wS6vwOR5j8B-GNVdcnLV-151" target="6IFdjQp1csUlXMz1_ElO-83" edge="1">
          <mxGeometry relative="1" as="geometry" />
        </mxCell>
        <mxCell id="wS6vwOR5j8B-GNVdcnLV-151" value="进入备忘录管理页面" style="rounded=1;whiteSpace=wrap;html=1;fillColor=#d5e8d4;strokeColor=#82b366;" parent="1" vertex="1">
          <mxGeometry x="1536" y="220" width="120" height="60" as="geometry" />
        </mxCell>
        <mxCell id="6IFdjQp1csUlXMz1_ElO-133" value="" style="edgeStyle=orthogonalEdgeStyle;rounded=0;orthogonalLoop=1;jettySize=auto;html=1;" parent="1" source="wS6vwOR5j8B-GNVdcnLV-152" target="6IFdjQp1csUlXMz1_ElO-96" edge="1">
          <mxGeometry relative="1" as="geometry" />
        </mxCell>
        <mxCell id="wS6vwOR5j8B-GNVdcnLV-152" value="进入日志管理页面" style="rounded=1;whiteSpace=wrap;html=1;fillColor=#d5e8d4;strokeColor=#82b366;" parent="1" vertex="1">
          <mxGeometry x="1826" y="220" width="120" height="60" as="geometry" />
        </mxCell>
        <mxCell id="6IFdjQp1csUlXMz1_ElO-134" value="" style="edgeStyle=orthogonalEdgeStyle;rounded=0;orthogonalLoop=1;jettySize=auto;html=1;" parent="1" source="wS6vwOR5j8B-GNVdcnLV-153" target="6IFdjQp1csUlXMz1_ElO-109" edge="1">
          <mxGeometry relative="1" as="geometry" />
        </mxCell>
        <mxCell id="wS6vwOR5j8B-GNVdcnLV-153" value="进入个人信息管理页面" style="rounded=1;whiteSpace=wrap;html=1;fillColor=#d5e8d4;strokeColor=#82b366;" parent="1" vertex="1">
          <mxGeometry x="2106" y="220" width="120" height="60" as="geometry" />
        </mxCell>
        <mxCell id="wS6vwOR5j8B-GNVdcnLV-158" value="" style="edgeStyle=orthogonalEdgeStyle;rounded=0;orthogonalLoop=1;jettySize=auto;html=1;entryX=0.5;entryY=0;entryDx=0;entryDy=0;" parent="1" source="wS6vwOR5j8B-GNVdcnLV-154" target="wS6vwOR5j8B-GNVdcnLV-156" edge="1">
          <mxGeometry relative="1" as="geometry" />
        </mxCell>
        <mxCell id="wS6vwOR5j8B-GNVdcnLV-154" value="退出登录" style="rounded=1;whiteSpace=wrap;html=1;fillColor=#d5e8d4;strokeColor=#82b366;" parent="1" vertex="1">
          <mxGeometry x="970" y="930" width="120" height="60" as="geometry" />
        </mxCell>
        <mxCell id="wS6vwOR5j8B-GNVdcnLV-155" value="" style="group" parent="1" vertex="1" connectable="0">
          <mxGeometry x="990" y="1030" width="80" height="80" as="geometry" />
        </mxCell>
        <mxCell id="wS6vwOR5j8B-GNVdcnLV-156" value="" style="ellipse;whiteSpace=wrap;html=1;rounded=1;" parent="wS6vwOR5j8B-GNVdcnLV-155" vertex="1">
          <mxGeometry width="80" height="80" as="geometry" />
        </mxCell>
        <mxCell id="wS6vwOR5j8B-GNVdcnLV-157" value="" style="ellipse;whiteSpace=wrap;html=1;rounded=1;fillColor=#000000;" parent="wS6vwOR5j8B-GNVdcnLV-155" vertex="1">
          <mxGeometry x="15" y="15" width="50" height="50" as="geometry" />
        </mxCell>
        <mxCell id="wS6vwOR5j8B-GNVdcnLV-174" value="" style="edgeStyle=orthogonalEdgeStyle;rounded=0;orthogonalLoop=1;jettySize=auto;html=1;" parent="1" source="wS6vwOR5j8B-GNVdcnLV-175" target="wS6vwOR5j8B-GNVdcnLV-176" edge="1">
          <mxGeometry relative="1" as="geometry" />
        </mxCell>
        <mxCell id="wS6vwOR5j8B-GNVdcnLV-182" value="结束" style="edgeLabel;html=1;align=center;verticalAlign=middle;resizable=0;points=[];" parent="wS6vwOR5j8B-GNVdcnLV-174" vertex="1" connectable="0">
          <mxGeometry x="-0.1096" y="-2" relative="1" as="geometry">
            <mxPoint as="offset" />
          </mxGeometry>
        </mxCell>
        <mxCell id="wS6vwOR5j8B-GNVdcnLV-179" style="edgeStyle=orthogonalEdgeStyle;rounded=0;orthogonalLoop=1;jettySize=auto;html=1;exitX=0.5;exitY=1;exitDx=0;exitDy=0;" parent="1" source="wS6vwOR5j8B-GNVdcnLV-175" target="wS6vwOR5j8B-GNVdcnLV-154" edge="1">
          <mxGeometry relative="1" as="geometry">
            <mxPoint x="176" y="850" as="sourcePoint" />
          </mxGeometry>
        </mxCell>
        <mxCell id="6IFdjQp1csUlXMz1_ElO-13" style="edgeStyle=orthogonalEdgeStyle;rounded=0;orthogonalLoop=1;jettySize=auto;html=1;startArrow=classic;startFill=1;endArrow=none;endFill=0;" parent="1" source="wS6vwOR5j8B-GNVdcnLV-175" target="6IFdjQp1csUlXMz1_ElO-1" edge="1">
          <mxGeometry relative="1" as="geometry" />
        </mxCell>
        <mxCell id="wS6vwOR5j8B-GNVdcnLV-175" value="" style="rhombus;whiteSpace=wrap;html=1;fillColor=#fff2cc;strokeColor=#d6b656;" parent="1" vertex="1">
          <mxGeometry x="136" y="650" width="80" height="80" as="geometry" />
        </mxCell>
        <mxCell id="wS6vwOR5j8B-GNVdcnLV-176" value="" style="group;movable=1;resizable=1;rotatable=1;deletable=1;editable=1;locked=0;connectable=1;" parent="1" vertex="1" connectable="0">
          <mxGeometry x="254" y="660" width="60" height="60" as="geometry" />
        </mxCell>
        <mxCell id="wS6vwOR5j8B-GNVdcnLV-177" value="" style="ellipse;whiteSpace=wrap;html=1;rounded=1;movable=0;resizable=0;rotatable=0;deletable=0;editable=0;locked=1;connectable=0;" parent="wS6vwOR5j8B-GNVdcnLV-176" vertex="1">
          <mxGeometry width="60" height="60" as="geometry" />
        </mxCell>
        <mxCell id="wS6vwOR5j8B-GNVdcnLV-178" value="" style="ellipse;whiteSpace=wrap;html=1;rounded=1;movable=1;resizable=1;rotatable=1;deletable=1;editable=1;locked=0;connectable=1;fillColor=#330000;" parent="wS6vwOR5j8B-GNVdcnLV-176" vertex="1">
          <mxGeometry x="11.25" y="11.25" width="37.5" height="37.5" as="geometry" />
        </mxCell>
        <mxCell id="6IFdjQp1csUlXMz1_ElO-1" value="修改信息" style="rounded=1;whiteSpace=wrap;html=1;fillColor=#d5e8d4;strokeColor=#82b366;" parent="1" vertex="1">
          <mxGeometry y="500" width="120" height="60" as="geometry" />
        </mxCell>
        <mxCell id="6IFdjQp1csUlXMz1_ElO-16" style="edgeStyle=orthogonalEdgeStyle;rounded=0;orthogonalLoop=1;jettySize=auto;html=1;entryX=0.506;entryY=0.026;entryDx=0;entryDy=0;entryPerimeter=0;" parent="1" source="wS6vwOR5j8B-GNVdcnLV-7" target="wS6vwOR5j8B-GNVdcnLV-149" edge="1">
          <mxGeometry relative="1" as="geometry">
            <Array as="points">
              <mxPoint x="1060" y="160" />
              <mxPoint x="1003" y="160" />
            </Array>
          </mxGeometry>
        </mxCell>
        <mxCell id="6IFdjQp1csUlXMz1_ElO-21" value="" style="edgeStyle=orthogonalEdgeStyle;rounded=0;orthogonalLoop=1;jettySize=auto;html=1;entryX=0.5;entryY=0;entryDx=0;entryDy=0;" parent="1" source="6IFdjQp1csUlXMz1_ElO-22" target="6IFdjQp1csUlXMz1_ElO-25" edge="1">
          <mxGeometry relative="1" as="geometry">
            <mxPoint x="446" y="490" as="targetPoint" />
          </mxGeometry>
        </mxCell>
        <mxCell id="6IFdjQp1csUlXMz1_ElO-22" value="查看事项信息" style="whiteSpace=wrap;html=1;rounded=1;fillColor=#d5e8d4;strokeColor=#82b366;" parent="1" vertex="1">
          <mxGeometry x="386" y="360" width="120" height="60" as="geometry" />
        </mxCell>
        <mxCell id="6IFdjQp1csUlXMz1_ElO-23" value="" style="edgeStyle=orthogonalEdgeStyle;rounded=0;orthogonalLoop=1;jettySize=auto;html=1;" parent="1" source="6IFdjQp1csUlXMz1_ElO-25" target="6IFdjQp1csUlXMz1_ElO-33" edge="1">
          <mxGeometry relative="1" as="geometry" />
        </mxCell>
        <mxCell id="6IFdjQp1csUlXMz1_ElO-24" value="" style="edgeStyle=orthogonalEdgeStyle;rounded=0;orthogonalLoop=1;jettySize=auto;html=1;" parent="1" source="6IFdjQp1csUlXMz1_ElO-25" target="6IFdjQp1csUlXMz1_ElO-29" edge="1">
          <mxGeometry relative="1" as="geometry" />
        </mxCell>
        <mxCell id="6IFdjQp1csUlXMz1_ElO-25" value="" style="rhombus;whiteSpace=wrap;html=1;fillColor=#fff2cc;strokeColor=#d6b656;" parent="1" vertex="1">
          <mxGeometry x="406" y="490" width="80" height="80" as="geometry" />
        </mxCell>
        <mxCell id="6IFdjQp1csUlXMz1_ElO-26" value="" style="edgeStyle=orthogonalEdgeStyle;rounded=0;orthogonalLoop=1;jettySize=auto;html=1;" parent="1" source="6IFdjQp1csUlXMz1_ElO-29" target="6IFdjQp1csUlXMz1_ElO-30" edge="1">
          <mxGeometry relative="1" as="geometry" />
        </mxCell>
        <mxCell id="6IFdjQp1csUlXMz1_ElO-27" value="结束" style="edgeLabel;html=1;align=center;verticalAlign=middle;resizable=0;points=[];" parent="6IFdjQp1csUlXMz1_ElO-26" vertex="1" connectable="0">
          <mxGeometry x="-0.1096" y="-2" relative="1" as="geometry">
            <mxPoint as="offset" />
          </mxGeometry>
        </mxCell>
        <mxCell id="6IFdjQp1csUlXMz1_ElO-28" style="edgeStyle=orthogonalEdgeStyle;rounded=0;orthogonalLoop=1;jettySize=auto;html=1;startArrow=classic;startFill=1;endArrow=none;endFill=0;" parent="1" source="6IFdjQp1csUlXMz1_ElO-29" target="6IFdjQp1csUlXMz1_ElO-33" edge="1">
          <mxGeometry relative="1" as="geometry" />
        </mxCell>
        <mxCell id="6IFdjQp1csUlXMz1_ElO-29" value="" style="rhombus;whiteSpace=wrap;html=1;fillColor=#fff2cc;strokeColor=#d6b656;" parent="1" vertex="1">
          <mxGeometry x="406" y="650" width="80" height="80" as="geometry" />
        </mxCell>
        <mxCell id="6IFdjQp1csUlXMz1_ElO-30" value="" style="group;movable=1;resizable=1;rotatable=1;deletable=1;editable=1;locked=0;connectable=1;" parent="1" vertex="1" connectable="0">
          <mxGeometry x="524" y="660" width="60" height="60" as="geometry" />
        </mxCell>
        <mxCell id="6IFdjQp1csUlXMz1_ElO-31" value="" style="ellipse;whiteSpace=wrap;html=1;rounded=1;movable=0;resizable=0;rotatable=0;deletable=0;editable=0;locked=1;connectable=0;" parent="6IFdjQp1csUlXMz1_ElO-30" vertex="1">
          <mxGeometry width="60" height="60" as="geometry" />
        </mxCell>
        <mxCell id="6IFdjQp1csUlXMz1_ElO-32" value="" style="ellipse;whiteSpace=wrap;html=1;rounded=1;movable=1;resizable=1;rotatable=1;deletable=1;editable=1;locked=0;connectable=1;fillColor=#330000;" parent="6IFdjQp1csUlXMz1_ElO-30" vertex="1">
          <mxGeometry x="11.25" y="11.25" width="37.5" height="38.75" as="geometry" />
        </mxCell>
        <mxCell id="6IFdjQp1csUlXMz1_ElO-33" value="修改事项信息" style="rounded=1;whiteSpace=wrap;html=1;fillColor=#d5e8d4;strokeColor=#82b366;" parent="1" vertex="1">
          <mxGeometry x="270" y="500" width="120" height="60" as="geometry" />
        </mxCell>
        <mxCell id="6IFdjQp1csUlXMz1_ElO-43" value="" style="edgeStyle=orthogonalEdgeStyle;rounded=0;orthogonalLoop=1;jettySize=auto;html=1;entryX=0.5;entryY=0;entryDx=0;entryDy=0;" parent="1" source="6IFdjQp1csUlXMz1_ElO-44" target="6IFdjQp1csUlXMz1_ElO-47" edge="1">
          <mxGeometry relative="1" as="geometry">
            <mxPoint x="726" y="490" as="targetPoint" />
          </mxGeometry>
        </mxCell>
        <mxCell id="6IFdjQp1csUlXMz1_ElO-44" value="查看&lt;span style=&quot;background-color: initial;&quot;&gt;代办信息&lt;/span&gt;" style="whiteSpace=wrap;html=1;rounded=1;fillColor=#d5e8d4;strokeColor=#82b366;" parent="1" vertex="1">
          <mxGeometry x="666" y="360" width="120" height="60" as="geometry" />
        </mxCell>
        <mxCell id="6IFdjQp1csUlXMz1_ElO-45" value="" style="edgeStyle=orthogonalEdgeStyle;rounded=0;orthogonalLoop=1;jettySize=auto;html=1;" parent="1" source="6IFdjQp1csUlXMz1_ElO-47" target="6IFdjQp1csUlXMz1_ElO-55" edge="1">
          <mxGeometry relative="1" as="geometry" />
        </mxCell>
        <mxCell id="6IFdjQp1csUlXMz1_ElO-46" value="" style="edgeStyle=orthogonalEdgeStyle;rounded=0;orthogonalLoop=1;jettySize=auto;html=1;" parent="1" source="6IFdjQp1csUlXMz1_ElO-47" target="6IFdjQp1csUlXMz1_ElO-51" edge="1">
          <mxGeometry relative="1" as="geometry" />
        </mxCell>
        <mxCell id="6IFdjQp1csUlXMz1_ElO-47" value="" style="rhombus;whiteSpace=wrap;html=1;fillColor=#fff2cc;strokeColor=#d6b656;" parent="1" vertex="1">
          <mxGeometry x="686" y="490" width="80" height="80" as="geometry" />
        </mxCell>
        <mxCell id="6IFdjQp1csUlXMz1_ElO-48" value="" style="edgeStyle=orthogonalEdgeStyle;rounded=0;orthogonalLoop=1;jettySize=auto;html=1;" parent="1" source="6IFdjQp1csUlXMz1_ElO-51" target="6IFdjQp1csUlXMz1_ElO-52" edge="1">
          <mxGeometry relative="1" as="geometry" />
        </mxCell>
        <mxCell id="6IFdjQp1csUlXMz1_ElO-49" value="结束" style="edgeLabel;html=1;align=center;verticalAlign=middle;resizable=0;points=[];" parent="6IFdjQp1csUlXMz1_ElO-48" vertex="1" connectable="0">
          <mxGeometry x="-0.1096" y="-2" relative="1" as="geometry">
            <mxPoint as="offset" />
          </mxGeometry>
        </mxCell>
        <mxCell id="6IFdjQp1csUlXMz1_ElO-50" style="edgeStyle=orthogonalEdgeStyle;rounded=0;orthogonalLoop=1;jettySize=auto;html=1;startArrow=classic;startFill=1;endArrow=none;endFill=0;" parent="1" source="6IFdjQp1csUlXMz1_ElO-51" target="6IFdjQp1csUlXMz1_ElO-55" edge="1">
          <mxGeometry relative="1" as="geometry" />
        </mxCell>
        <mxCell id="6IFdjQp1csUlXMz1_ElO-122" style="edgeStyle=orthogonalEdgeStyle;rounded=0;orthogonalLoop=1;jettySize=auto;html=1;" parent="1" source="6IFdjQp1csUlXMz1_ElO-51" target="wS6vwOR5j8B-GNVdcnLV-154" edge="1">
          <mxGeometry relative="1" as="geometry">
            <Array as="points">
              <mxPoint x="726" y="830" />
              <mxPoint x="1030" y="830" />
            </Array>
          </mxGeometry>
        </mxCell>
        <mxCell id="6IFdjQp1csUlXMz1_ElO-51" value="" style="rhombus;whiteSpace=wrap;html=1;fillColor=#fff2cc;strokeColor=#d6b656;" parent="1" vertex="1">
          <mxGeometry x="686" y="650" width="80" height="80" as="geometry" />
        </mxCell>
        <mxCell id="6IFdjQp1csUlXMz1_ElO-52" value="" style="group;movable=1;resizable=1;rotatable=1;deletable=1;editable=1;locked=0;connectable=1;" parent="1" vertex="1" connectable="0">
          <mxGeometry x="804" y="660" width="60" height="60" as="geometry" />
        </mxCell>
        <mxCell id="6IFdjQp1csUlXMz1_ElO-53" value="" style="ellipse;whiteSpace=wrap;html=1;rounded=1;movable=0;resizable=0;rotatable=0;deletable=0;editable=0;locked=1;connectable=0;" parent="6IFdjQp1csUlXMz1_ElO-52" vertex="1">
          <mxGeometry width="60" height="60" as="geometry" />
        </mxCell>
        <mxCell id="6IFdjQp1csUlXMz1_ElO-54" value="" style="ellipse;whiteSpace=wrap;html=1;rounded=1;movable=1;resizable=1;rotatable=1;deletable=1;editable=1;locked=0;connectable=1;fillColor=#330000;" parent="6IFdjQp1csUlXMz1_ElO-52" vertex="1">
          <mxGeometry x="11.25" y="11.25" width="37.5" height="37.5" as="geometry" />
        </mxCell>
        <mxCell id="6IFdjQp1csUlXMz1_ElO-55" value="修改代办信息" style="rounded=1;whiteSpace=wrap;html=1;fillColor=#d5e8d4;strokeColor=#82b366;" parent="1" vertex="1">
          <mxGeometry x="550" y="500" width="120" height="60" as="geometry" />
        </mxCell>
        <mxCell id="6IFdjQp1csUlXMz1_ElO-56" value="" style="edgeStyle=orthogonalEdgeStyle;rounded=0;orthogonalLoop=1;jettySize=auto;html=1;entryX=0.5;entryY=0;entryDx=0;entryDy=0;" parent="1" source="6IFdjQp1csUlXMz1_ElO-57" target="6IFdjQp1csUlXMz1_ElO-60" edge="1">
          <mxGeometry relative="1" as="geometry">
            <mxPoint x="1002" y="490" as="targetPoint" />
          </mxGeometry>
        </mxCell>
        <mxCell id="6IFdjQp1csUlXMz1_ElO-57" value="查看活动清单信息" style="whiteSpace=wrap;html=1;rounded=1;fillColor=#d5e8d4;strokeColor=#82b366;" parent="1" vertex="1">
          <mxGeometry x="942" y="360" width="120" height="60" as="geometry" />
        </mxCell>
        <mxCell id="6IFdjQp1csUlXMz1_ElO-58" value="" style="edgeStyle=orthogonalEdgeStyle;rounded=0;orthogonalLoop=1;jettySize=auto;html=1;" parent="1" source="6IFdjQp1csUlXMz1_ElO-60" target="6IFdjQp1csUlXMz1_ElO-68" edge="1">
          <mxGeometry relative="1" as="geometry" />
        </mxCell>
        <mxCell id="6IFdjQp1csUlXMz1_ElO-59" value="" style="edgeStyle=orthogonalEdgeStyle;rounded=0;orthogonalLoop=1;jettySize=auto;html=1;" parent="1" source="6IFdjQp1csUlXMz1_ElO-60" target="6IFdjQp1csUlXMz1_ElO-64" edge="1">
          <mxGeometry relative="1" as="geometry" />
        </mxCell>
        <mxCell id="6IFdjQp1csUlXMz1_ElO-60" value="" style="rhombus;whiteSpace=wrap;html=1;fillColor=#fff2cc;strokeColor=#d6b656;" parent="1" vertex="1">
          <mxGeometry x="962" y="490" width="80" height="80" as="geometry" />
        </mxCell>
        <mxCell id="6IFdjQp1csUlXMz1_ElO-61" value="" style="edgeStyle=orthogonalEdgeStyle;rounded=0;orthogonalLoop=1;jettySize=auto;html=1;" parent="1" source="6IFdjQp1csUlXMz1_ElO-64" target="6IFdjQp1csUlXMz1_ElO-65" edge="1">
          <mxGeometry relative="1" as="geometry" />
        </mxCell>
        <mxCell id="6IFdjQp1csUlXMz1_ElO-62" value="结束" style="edgeLabel;html=1;align=center;verticalAlign=middle;resizable=0;points=[];" parent="6IFdjQp1csUlXMz1_ElO-61" vertex="1" connectable="0">
          <mxGeometry x="-0.1096" y="-2" relative="1" as="geometry">
            <mxPoint as="offset" />
          </mxGeometry>
        </mxCell>
        <mxCell id="6IFdjQp1csUlXMz1_ElO-63" style="edgeStyle=orthogonalEdgeStyle;rounded=0;orthogonalLoop=1;jettySize=auto;html=1;startArrow=classic;startFill=1;endArrow=none;endFill=0;" parent="1" source="6IFdjQp1csUlXMz1_ElO-64" target="6IFdjQp1csUlXMz1_ElO-68" edge="1">
          <mxGeometry relative="1" as="geometry" />
        </mxCell>
        <mxCell id="6IFdjQp1csUlXMz1_ElO-123" style="edgeStyle=orthogonalEdgeStyle;rounded=0;orthogonalLoop=1;jettySize=auto;html=1;" parent="1" source="6IFdjQp1csUlXMz1_ElO-64" target="wS6vwOR5j8B-GNVdcnLV-154" edge="1">
          <mxGeometry relative="1" as="geometry" />
        </mxCell>
        <mxCell id="6IFdjQp1csUlXMz1_ElO-64" value="" style="rhombus;whiteSpace=wrap;html=1;fillColor=#fff2cc;strokeColor=#d6b656;" parent="1" vertex="1">
          <mxGeometry x="962" y="650" width="80" height="80" as="geometry" />
        </mxCell>
        <mxCell id="6IFdjQp1csUlXMz1_ElO-65" value="" style="group;movable=1;resizable=1;rotatable=1;deletable=1;editable=1;locked=0;connectable=1;" parent="1" vertex="1" connectable="0">
          <mxGeometry x="1080" y="660" width="60" height="60" as="geometry" />
        </mxCell>
        <mxCell id="6IFdjQp1csUlXMz1_ElO-66" value="" style="ellipse;whiteSpace=wrap;html=1;rounded=1;movable=0;resizable=0;rotatable=0;deletable=0;editable=0;locked=1;connectable=0;" parent="6IFdjQp1csUlXMz1_ElO-65" vertex="1">
          <mxGeometry width="60" height="60" as="geometry" />
        </mxCell>
        <mxCell id="6IFdjQp1csUlXMz1_ElO-67" value="" style="ellipse;whiteSpace=wrap;html=1;rounded=1;movable=1;resizable=1;rotatable=1;deletable=1;editable=1;locked=0;connectable=1;fillColor=#330000;" parent="6IFdjQp1csUlXMz1_ElO-65" vertex="1">
          <mxGeometry x="11.25" y="11.25" width="37.5" height="37.5" as="geometry" />
        </mxCell>
        <mxCell id="6IFdjQp1csUlXMz1_ElO-68" value="修改活动清单信息" style="rounded=1;whiteSpace=wrap;html=1;fillColor=#d5e8d4;strokeColor=#82b366;" parent="1" vertex="1">
          <mxGeometry x="826" y="500" width="120" height="60" as="geometry" />
        </mxCell>
        <mxCell id="6IFdjQp1csUlXMz1_ElO-69" value="" style="edgeStyle=orthogonalEdgeStyle;rounded=0;orthogonalLoop=1;jettySize=auto;html=1;entryX=0.5;entryY=0;entryDx=0;entryDy=0;" parent="1" source="6IFdjQp1csUlXMz1_ElO-70" target="6IFdjQp1csUlXMz1_ElO-73" edge="1">
          <mxGeometry relative="1" as="geometry">
            <mxPoint x="1306" y="490" as="targetPoint" />
          </mxGeometry>
        </mxCell>
        <mxCell id="6IFdjQp1csUlXMz1_ElO-70" value="查看财务信息" style="whiteSpace=wrap;html=1;rounded=1;fillColor=#d5e8d4;strokeColor=#82b366;" parent="1" vertex="1">
          <mxGeometry x="1246" y="360" width="120" height="60" as="geometry" />
        </mxCell>
        <mxCell id="6IFdjQp1csUlXMz1_ElO-71" value="" style="edgeStyle=orthogonalEdgeStyle;rounded=0;orthogonalLoop=1;jettySize=auto;html=1;" parent="1" source="6IFdjQp1csUlXMz1_ElO-73" target="6IFdjQp1csUlXMz1_ElO-81" edge="1">
          <mxGeometry relative="1" as="geometry" />
        </mxCell>
        <mxCell id="6IFdjQp1csUlXMz1_ElO-72" value="" style="edgeStyle=orthogonalEdgeStyle;rounded=0;orthogonalLoop=1;jettySize=auto;html=1;" parent="1" source="6IFdjQp1csUlXMz1_ElO-73" target="6IFdjQp1csUlXMz1_ElO-77" edge="1">
          <mxGeometry relative="1" as="geometry" />
        </mxCell>
        <mxCell id="6IFdjQp1csUlXMz1_ElO-73" value="" style="rhombus;whiteSpace=wrap;html=1;fillColor=#fff2cc;strokeColor=#d6b656;" parent="1" vertex="1">
          <mxGeometry x="1266" y="490" width="80" height="80" as="geometry" />
        </mxCell>
        <mxCell id="6IFdjQp1csUlXMz1_ElO-74" value="" style="edgeStyle=orthogonalEdgeStyle;rounded=0;orthogonalLoop=1;jettySize=auto;html=1;" parent="1" source="6IFdjQp1csUlXMz1_ElO-77" target="6IFdjQp1csUlXMz1_ElO-78" edge="1">
          <mxGeometry relative="1" as="geometry" />
        </mxCell>
        <mxCell id="6IFdjQp1csUlXMz1_ElO-75" value="结束" style="edgeLabel;html=1;align=center;verticalAlign=middle;resizable=0;points=[];" parent="6IFdjQp1csUlXMz1_ElO-74" vertex="1" connectable="0">
          <mxGeometry x="-0.1096" y="-2" relative="1" as="geometry">
            <mxPoint as="offset" />
          </mxGeometry>
        </mxCell>
        <mxCell id="6IFdjQp1csUlXMz1_ElO-76" style="edgeStyle=orthogonalEdgeStyle;rounded=0;orthogonalLoop=1;jettySize=auto;html=1;startArrow=classic;startFill=1;endArrow=none;endFill=0;" parent="1" source="6IFdjQp1csUlXMz1_ElO-77" target="6IFdjQp1csUlXMz1_ElO-81" edge="1">
          <mxGeometry relative="1" as="geometry" />
        </mxCell>
        <mxCell id="6IFdjQp1csUlXMz1_ElO-124" style="edgeStyle=orthogonalEdgeStyle;rounded=0;orthogonalLoop=1;jettySize=auto;html=1;" parent="1" source="6IFdjQp1csUlXMz1_ElO-77" target="wS6vwOR5j8B-GNVdcnLV-154" edge="1">
          <mxGeometry relative="1" as="geometry">
            <Array as="points">
              <mxPoint x="1306" y="830" />
              <mxPoint x="1030" y="830" />
            </Array>
          </mxGeometry>
        </mxCell>
        <mxCell id="6IFdjQp1csUlXMz1_ElO-77" value="" style="rhombus;whiteSpace=wrap;html=1;fillColor=#fff2cc;strokeColor=#d6b656;" parent="1" vertex="1">
          <mxGeometry x="1266" y="650" width="80" height="80" as="geometry" />
        </mxCell>
        <mxCell id="6IFdjQp1csUlXMz1_ElO-78" value="" style="group;movable=1;resizable=1;rotatable=1;deletable=1;editable=1;locked=0;connectable=1;" parent="1" vertex="1" connectable="0">
          <mxGeometry x="1384" y="660" width="60" height="60" as="geometry" />
        </mxCell>
        <mxCell id="6IFdjQp1csUlXMz1_ElO-79" value="" style="ellipse;whiteSpace=wrap;html=1;rounded=1;movable=0;resizable=0;rotatable=0;deletable=0;editable=0;locked=1;connectable=0;" parent="6IFdjQp1csUlXMz1_ElO-78" vertex="1">
          <mxGeometry width="60" height="60" as="geometry" />
        </mxCell>
        <mxCell id="6IFdjQp1csUlXMz1_ElO-80" value="" style="ellipse;whiteSpace=wrap;html=1;rounded=1;movable=1;resizable=1;rotatable=1;deletable=1;editable=1;locked=0;connectable=1;fillColor=#000000;" parent="6IFdjQp1csUlXMz1_ElO-78" vertex="1">
          <mxGeometry x="11.25" y="11.25" width="37.5" height="37.5" as="geometry" />
        </mxCell>
        <mxCell id="6IFdjQp1csUlXMz1_ElO-81" value="修改财务信息" style="rounded=1;whiteSpace=wrap;html=1;fillColor=#d5e8d4;strokeColor=#82b366;" parent="1" vertex="1">
          <mxGeometry x="1130" y="500" width="120" height="60" as="geometry" />
        </mxCell>
        <mxCell id="6IFdjQp1csUlXMz1_ElO-82" value="" style="edgeStyle=orthogonalEdgeStyle;rounded=0;orthogonalLoop=1;jettySize=auto;html=1;entryX=0.5;entryY=0;entryDx=0;entryDy=0;" parent="1" source="6IFdjQp1csUlXMz1_ElO-83" target="6IFdjQp1csUlXMz1_ElO-86" edge="1">
          <mxGeometry relative="1" as="geometry">
            <mxPoint x="1596" y="490" as="targetPoint" />
          </mxGeometry>
        </mxCell>
        <mxCell id="6IFdjQp1csUlXMz1_ElO-83" value="查看备忘录信息" style="whiteSpace=wrap;html=1;rounded=1;fillColor=#d5e8d4;strokeColor=#82b366;" parent="1" vertex="1">
          <mxGeometry x="1536" y="360" width="120" height="60" as="geometry" />
        </mxCell>
        <mxCell id="6IFdjQp1csUlXMz1_ElO-84" value="" style="edgeStyle=orthogonalEdgeStyle;rounded=0;orthogonalLoop=1;jettySize=auto;html=1;" parent="1" source="6IFdjQp1csUlXMz1_ElO-86" target="6IFdjQp1csUlXMz1_ElO-94" edge="1">
          <mxGeometry relative="1" as="geometry" />
        </mxCell>
        <mxCell id="6IFdjQp1csUlXMz1_ElO-85" value="" style="edgeStyle=orthogonalEdgeStyle;rounded=0;orthogonalLoop=1;jettySize=auto;html=1;" parent="1" source="6IFdjQp1csUlXMz1_ElO-86" target="6IFdjQp1csUlXMz1_ElO-90" edge="1">
          <mxGeometry relative="1" as="geometry" />
        </mxCell>
        <mxCell id="6IFdjQp1csUlXMz1_ElO-86" value="" style="rhombus;whiteSpace=wrap;html=1;fillColor=#fff2cc;strokeColor=#d6b656;" parent="1" vertex="1">
          <mxGeometry x="1556" y="490" width="80" height="80" as="geometry" />
        </mxCell>
        <mxCell id="6IFdjQp1csUlXMz1_ElO-87" value="" style="edgeStyle=orthogonalEdgeStyle;rounded=0;orthogonalLoop=1;jettySize=auto;html=1;" parent="1" source="6IFdjQp1csUlXMz1_ElO-90" target="6IFdjQp1csUlXMz1_ElO-91" edge="1">
          <mxGeometry relative="1" as="geometry" />
        </mxCell>
        <mxCell id="6IFdjQp1csUlXMz1_ElO-88" value="结束" style="edgeLabel;html=1;align=center;verticalAlign=middle;resizable=0;points=[];" parent="6IFdjQp1csUlXMz1_ElO-87" vertex="1" connectable="0">
          <mxGeometry x="-0.1096" y="-2" relative="1" as="geometry">
            <mxPoint as="offset" />
          </mxGeometry>
        </mxCell>
        <mxCell id="6IFdjQp1csUlXMz1_ElO-89" style="edgeStyle=orthogonalEdgeStyle;rounded=0;orthogonalLoop=1;jettySize=auto;html=1;startArrow=classic;startFill=1;endArrow=none;endFill=0;" parent="1" source="6IFdjQp1csUlXMz1_ElO-90" target="6IFdjQp1csUlXMz1_ElO-94" edge="1">
          <mxGeometry relative="1" as="geometry" />
        </mxCell>
        <mxCell id="6IFdjQp1csUlXMz1_ElO-125" style="edgeStyle=orthogonalEdgeStyle;rounded=0;orthogonalLoop=1;jettySize=auto;html=1;" parent="1" source="6IFdjQp1csUlXMz1_ElO-90" target="wS6vwOR5j8B-GNVdcnLV-154" edge="1">
          <mxGeometry relative="1" as="geometry">
            <Array as="points">
              <mxPoint x="1596" y="830" />
              <mxPoint x="1030" y="830" />
            </Array>
          </mxGeometry>
        </mxCell>
        <mxCell id="6IFdjQp1csUlXMz1_ElO-90" value="" style="rhombus;whiteSpace=wrap;html=1;fillColor=#fff2cc;strokeColor=#d6b656;" parent="1" vertex="1">
          <mxGeometry x="1556" y="650" width="80" height="80" as="geometry" />
        </mxCell>
        <mxCell id="6IFdjQp1csUlXMz1_ElO-91" value="" style="group;movable=1;resizable=1;rotatable=1;deletable=1;editable=1;locked=0;connectable=1;" parent="1" vertex="1" connectable="0">
          <mxGeometry x="1674" y="660" width="60" height="60" as="geometry" />
        </mxCell>
        <mxCell id="6IFdjQp1csUlXMz1_ElO-92" value="" style="ellipse;whiteSpace=wrap;html=1;rounded=1;movable=0;resizable=0;rotatable=0;deletable=0;editable=0;locked=1;connectable=0;" parent="6IFdjQp1csUlXMz1_ElO-91" vertex="1">
          <mxGeometry width="60" height="60" as="geometry" />
        </mxCell>
        <mxCell id="6IFdjQp1csUlXMz1_ElO-93" value="" style="ellipse;whiteSpace=wrap;html=1;rounded=1;movable=1;resizable=1;rotatable=1;deletable=1;editable=1;locked=0;connectable=1;fillColor=#330000;" parent="6IFdjQp1csUlXMz1_ElO-91" vertex="1">
          <mxGeometry x="11.25" y="11.25" width="37.5" height="37.5" as="geometry" />
        </mxCell>
        <mxCell id="6IFdjQp1csUlXMz1_ElO-94" value="修改备忘录信息" style="rounded=1;whiteSpace=wrap;html=1;fillColor=#d5e8d4;strokeColor=#82b366;" parent="1" vertex="1">
          <mxGeometry x="1420" y="500" width="120" height="60" as="geometry" />
        </mxCell>
        <mxCell id="6IFdjQp1csUlXMz1_ElO-95" value="" style="edgeStyle=orthogonalEdgeStyle;rounded=0;orthogonalLoop=1;jettySize=auto;html=1;entryX=0.5;entryY=0;entryDx=0;entryDy=0;" parent="1" source="6IFdjQp1csUlXMz1_ElO-96" target="6IFdjQp1csUlXMz1_ElO-99" edge="1">
          <mxGeometry relative="1" as="geometry">
            <mxPoint x="1886" y="490" as="targetPoint" />
          </mxGeometry>
        </mxCell>
        <mxCell id="6IFdjQp1csUlXMz1_ElO-96" value="查看日志信息" style="whiteSpace=wrap;html=1;rounded=1;fillColor=#d5e8d4;strokeColor=#82b366;" parent="1" vertex="1">
          <mxGeometry x="1826" y="360" width="120" height="60" as="geometry" />
        </mxCell>
        <mxCell id="6IFdjQp1csUlXMz1_ElO-97" value="" style="edgeStyle=orthogonalEdgeStyle;rounded=0;orthogonalLoop=1;jettySize=auto;html=1;" parent="1" source="6IFdjQp1csUlXMz1_ElO-99" target="6IFdjQp1csUlXMz1_ElO-107" edge="1">
          <mxGeometry relative="1" as="geometry" />
        </mxCell>
        <mxCell id="6IFdjQp1csUlXMz1_ElO-98" value="" style="edgeStyle=orthogonalEdgeStyle;rounded=0;orthogonalLoop=1;jettySize=auto;html=1;" parent="1" source="6IFdjQp1csUlXMz1_ElO-99" target="6IFdjQp1csUlXMz1_ElO-103" edge="1">
          <mxGeometry relative="1" as="geometry" />
        </mxCell>
        <mxCell id="6IFdjQp1csUlXMz1_ElO-99" value="" style="rhombus;whiteSpace=wrap;html=1;fillColor=#fff2cc;strokeColor=#d6b656;" parent="1" vertex="1">
          <mxGeometry x="1846" y="490" width="80" height="80" as="geometry" />
        </mxCell>
        <mxCell id="6IFdjQp1csUlXMz1_ElO-100" value="" style="edgeStyle=orthogonalEdgeStyle;rounded=0;orthogonalLoop=1;jettySize=auto;html=1;" parent="1" source="6IFdjQp1csUlXMz1_ElO-103" target="6IFdjQp1csUlXMz1_ElO-104" edge="1">
          <mxGeometry relative="1" as="geometry" />
        </mxCell>
        <mxCell id="6IFdjQp1csUlXMz1_ElO-101" value="结束" style="edgeLabel;html=1;align=center;verticalAlign=middle;resizable=0;points=[];" parent="6IFdjQp1csUlXMz1_ElO-100" vertex="1" connectable="0">
          <mxGeometry x="-0.1096" y="-2" relative="1" as="geometry">
            <mxPoint as="offset" />
          </mxGeometry>
        </mxCell>
        <mxCell id="6IFdjQp1csUlXMz1_ElO-102" style="edgeStyle=orthogonalEdgeStyle;rounded=0;orthogonalLoop=1;jettySize=auto;html=1;startArrow=classic;startFill=1;endArrow=none;endFill=0;" parent="1" source="6IFdjQp1csUlXMz1_ElO-103" target="6IFdjQp1csUlXMz1_ElO-107" edge="1">
          <mxGeometry relative="1" as="geometry" />
        </mxCell>
        <mxCell id="6IFdjQp1csUlXMz1_ElO-126" style="edgeStyle=orthogonalEdgeStyle;rounded=0;orthogonalLoop=1;jettySize=auto;html=1;" parent="1" source="6IFdjQp1csUlXMz1_ElO-103" target="wS6vwOR5j8B-GNVdcnLV-154" edge="1">
          <mxGeometry relative="1" as="geometry">
            <Array as="points">
              <mxPoint x="1886" y="830" />
              <mxPoint x="1030" y="830" />
            </Array>
          </mxGeometry>
        </mxCell>
        <mxCell id="6IFdjQp1csUlXMz1_ElO-103" value="" style="rhombus;whiteSpace=wrap;html=1;fillColor=#fff2cc;strokeColor=#d6b656;" parent="1" vertex="1">
          <mxGeometry x="1846" y="650" width="80" height="80" as="geometry" />
        </mxCell>
        <mxCell id="6IFdjQp1csUlXMz1_ElO-104" value="" style="group;movable=1;resizable=1;rotatable=1;deletable=1;editable=1;locked=0;connectable=1;" parent="1" vertex="1" connectable="0">
          <mxGeometry x="1964" y="660" width="60" height="60" as="geometry" />
        </mxCell>
        <mxCell id="6IFdjQp1csUlXMz1_ElO-105" value="" style="ellipse;whiteSpace=wrap;html=1;rounded=1;movable=0;resizable=0;rotatable=0;deletable=0;editable=0;locked=1;connectable=0;" parent="6IFdjQp1csUlXMz1_ElO-104" vertex="1">
          <mxGeometry width="60" height="60" as="geometry" />
        </mxCell>
        <mxCell id="6IFdjQp1csUlXMz1_ElO-106" value="" style="ellipse;whiteSpace=wrap;html=1;rounded=1;movable=1;resizable=1;rotatable=1;deletable=1;editable=1;locked=0;connectable=1;fillColor=#330000;" parent="6IFdjQp1csUlXMz1_ElO-104" vertex="1">
          <mxGeometry x="11.25" y="11.25" width="37.5" height="37.5" as="geometry" />
        </mxCell>
        <mxCell id="6IFdjQp1csUlXMz1_ElO-107" value="修改日志信息" style="rounded=1;whiteSpace=wrap;html=1;fillColor=#d5e8d4;strokeColor=#82b366;" parent="1" vertex="1">
          <mxGeometry x="1710" y="500" width="120" height="60" as="geometry" />
        </mxCell>
        <mxCell id="6IFdjQp1csUlXMz1_ElO-108" value="" style="edgeStyle=orthogonalEdgeStyle;rounded=0;orthogonalLoop=1;jettySize=auto;html=1;entryX=0.5;entryY=0;entryDx=0;entryDy=0;" parent="1" source="6IFdjQp1csUlXMz1_ElO-109" target="6IFdjQp1csUlXMz1_ElO-112" edge="1">
          <mxGeometry relative="1" as="geometry">
            <mxPoint x="2166" y="490" as="targetPoint" />
          </mxGeometry>
        </mxCell>
        <mxCell id="6IFdjQp1csUlXMz1_ElO-109" value="查看个人信息" style="whiteSpace=wrap;html=1;rounded=1;fillColor=#d5e8d4;strokeColor=#82b366;" parent="1" vertex="1">
          <mxGeometry x="2106" y="360" width="120" height="60" as="geometry" />
        </mxCell>
        <mxCell id="6IFdjQp1csUlXMz1_ElO-110" value="" style="edgeStyle=orthogonalEdgeStyle;rounded=0;orthogonalLoop=1;jettySize=auto;html=1;" parent="1" source="6IFdjQp1csUlXMz1_ElO-112" target="6IFdjQp1csUlXMz1_ElO-120" edge="1">
          <mxGeometry relative="1" as="geometry" />
        </mxCell>
        <mxCell id="6IFdjQp1csUlXMz1_ElO-111" value="" style="edgeStyle=orthogonalEdgeStyle;rounded=0;orthogonalLoop=1;jettySize=auto;html=1;" parent="1" source="6IFdjQp1csUlXMz1_ElO-112" target="6IFdjQp1csUlXMz1_ElO-116" edge="1">
          <mxGeometry relative="1" as="geometry" />
        </mxCell>
        <mxCell id="6IFdjQp1csUlXMz1_ElO-112" value="" style="rhombus;whiteSpace=wrap;html=1;fillColor=#fff2cc;strokeColor=#d6b656;" parent="1" vertex="1">
          <mxGeometry x="2126" y="490" width="80" height="80" as="geometry" />
        </mxCell>
        <mxCell id="6IFdjQp1csUlXMz1_ElO-113" value="" style="edgeStyle=orthogonalEdgeStyle;rounded=0;orthogonalLoop=1;jettySize=auto;html=1;" parent="1" source="6IFdjQp1csUlXMz1_ElO-116" target="6IFdjQp1csUlXMz1_ElO-117" edge="1">
          <mxGeometry relative="1" as="geometry" />
        </mxCell>
        <mxCell id="6IFdjQp1csUlXMz1_ElO-114" value="结束" style="edgeLabel;html=1;align=center;verticalAlign=middle;resizable=0;points=[];" parent="6IFdjQp1csUlXMz1_ElO-113" vertex="1" connectable="0">
          <mxGeometry x="-0.1096" y="-2" relative="1" as="geometry">
            <mxPoint as="offset" />
          </mxGeometry>
        </mxCell>
        <mxCell id="6IFdjQp1csUlXMz1_ElO-115" style="edgeStyle=orthogonalEdgeStyle;rounded=0;orthogonalLoop=1;jettySize=auto;html=1;startArrow=classic;startFill=1;endArrow=none;endFill=0;" parent="1" source="6IFdjQp1csUlXMz1_ElO-116" target="6IFdjQp1csUlXMz1_ElO-120" edge="1">
          <mxGeometry relative="1" as="geometry" />
        </mxCell>
        <mxCell id="6IFdjQp1csUlXMz1_ElO-127" style="edgeStyle=orthogonalEdgeStyle;rounded=0;orthogonalLoop=1;jettySize=auto;html=1;" parent="1" source="6IFdjQp1csUlXMz1_ElO-116" target="wS6vwOR5j8B-GNVdcnLV-154" edge="1">
          <mxGeometry relative="1" as="geometry">
            <Array as="points">
              <mxPoint x="2166" y="830" />
              <mxPoint x="1030" y="830" />
            </Array>
          </mxGeometry>
        </mxCell>
        <mxCell id="6IFdjQp1csUlXMz1_ElO-116" value="" style="rhombus;whiteSpace=wrap;html=1;fillColor=#fff2cc;strokeColor=#d6b656;" parent="1" vertex="1">
          <mxGeometry x="2126" y="650" width="80" height="80" as="geometry" />
        </mxCell>
        <mxCell id="6IFdjQp1csUlXMz1_ElO-117" value="" style="group;movable=1;resizable=1;rotatable=1;deletable=1;editable=1;locked=0;connectable=1;" parent="1" vertex="1" connectable="0">
          <mxGeometry x="2244" y="660" width="60" height="60" as="geometry" />
        </mxCell>
        <mxCell id="6IFdjQp1csUlXMz1_ElO-118" value="" style="ellipse;whiteSpace=wrap;html=1;rounded=1;movable=0;resizable=0;rotatable=0;deletable=0;editable=0;locked=1;connectable=0;" parent="6IFdjQp1csUlXMz1_ElO-117" vertex="1">
          <mxGeometry width="60" height="60" as="geometry" />
        </mxCell>
        <mxCell id="6IFdjQp1csUlXMz1_ElO-119" value="" style="ellipse;whiteSpace=wrap;html=1;rounded=1;movable=1;resizable=1;rotatable=1;deletable=1;editable=1;locked=0;connectable=1;fillColor=#330000;" parent="6IFdjQp1csUlXMz1_ElO-117" vertex="1">
          <mxGeometry x="11.25" y="11.25" width="37.5" height="37.5" as="geometry" />
        </mxCell>
        <mxCell id="6IFdjQp1csUlXMz1_ElO-120" value="修改个人信息" style="rounded=1;whiteSpace=wrap;html=1;fillColor=#d5e8d4;strokeColor=#82b366;" parent="1" vertex="1">
          <mxGeometry x="1990" y="500" width="120" height="60" as="geometry" />
        </mxCell>
        <mxCell id="Q6jJ9rGlNbkxmBQATjsx-5" value="系统总体工作流程图" style="swimlane;childLayout=stackLayout;resizeParent=1;resizeParentMax=0;horizontal=0;startSize=20;horizontalStack=0;html=1;fillColor=#fff2cc;strokeColor=#d6b656;" vertex="1" parent="1">
          <mxGeometry x="186" y="1220" width="990" height="320" as="geometry" />
        </mxCell>
        <mxCell id="Q6jJ9rGlNbkxmBQATjsx-6" value="用户" style="swimlane;startSize=20;horizontal=0;html=1;fillColor=#d5e8d4;strokeColor=#82b366;" vertex="1" parent="Q6jJ9rGlNbkxmBQATjsx-5">
          <mxGeometry x="20" width="970" height="200" as="geometry" />
        </mxCell>
        <mxCell id="Q6jJ9rGlNbkxmBQATjsx-11" value="" style="ellipse;whiteSpace=wrap;html=1;aspect=fixed;" vertex="1" parent="Q6jJ9rGlNbkxmBQATjsx-6">
          <mxGeometry x="24" y="86.25" width="20" height="20" as="geometry" />
        </mxCell>
        <mxCell id="Q6jJ9rGlNbkxmBQATjsx-28" value="" style="edgeStyle=orthogonalEdgeStyle;rounded=0;orthogonalLoop=1;jettySize=auto;html=1;" edge="1" parent="Q6jJ9rGlNbkxmBQATjsx-6" target="Q6jJ9rGlNbkxmBQATjsx-27">
          <mxGeometry relative="1" as="geometry">
            <mxPoint x="48.730000000000004" y="96.25" as="sourcePoint" />
          </mxGeometry>
        </mxCell>
        <mxCell id="Q6jJ9rGlNbkxmBQATjsx-14" value="" style="edgeStyle=orthogonalEdgeStyle;rounded=0;orthogonalLoop=1;jettySize=auto;html=1;" edge="1" parent="Q6jJ9rGlNbkxmBQATjsx-6" source="Q6jJ9rGlNbkxmBQATjsx-12" target="Q6jJ9rGlNbkxmBQATjsx-13">
          <mxGeometry relative="1" as="geometry" />
        </mxCell>
        <mxCell id="Q6jJ9rGlNbkxmBQATjsx-12" value="&lt;font style=&quot;font-size: 6px;&quot;&gt;&lt;b&gt;进入提醒事项管理页面&lt;/b&gt;&lt;/font&gt;" style="rounded=1;whiteSpace=wrap;html=1;fillColor=#d5e8d4;strokeColor=#82b366;strokeWidth=1;" vertex="1" parent="Q6jJ9rGlNbkxmBQATjsx-6">
          <mxGeometry x="238.73" y="82.5" width="46" height="30" as="geometry" />
        </mxCell>
        <mxCell id="Q6jJ9rGlNbkxmBQATjsx-13" value="" style="rhombus;whiteSpace=wrap;html=1;fillColor=#fff2cc;strokeColor=#d6b656;rounded=0;strokeWidth=1;" vertex="1" parent="Q6jJ9rGlNbkxmBQATjsx-6">
          <mxGeometry x="304.73" y="80" width="35" height="35" as="geometry" />
        </mxCell>
        <mxCell id="Q6jJ9rGlNbkxmBQATjsx-15" value="新增事项" style="whiteSpace=wrap;html=1;fillColor=#d5e8d4;strokeColor=#82b366;rounded=1;strokeWidth=1;" vertex="1" parent="Q6jJ9rGlNbkxmBQATjsx-6">
          <mxGeometry x="358.73" y="112.5" width="60" height="30" as="geometry" />
        </mxCell>
        <mxCell id="Q6jJ9rGlNbkxmBQATjsx-16" value="" style="edgeStyle=orthogonalEdgeStyle;rounded=0;orthogonalLoop=1;jettySize=auto;html=1;exitX=0.504;exitY=-0.001;exitDx=0;exitDy=0;exitPerimeter=0;entryX=-0.001;entryY=0.748;entryDx=0;entryDy=0;entryPerimeter=0;" edge="1" parent="Q6jJ9rGlNbkxmBQATjsx-6" source="Q6jJ9rGlNbkxmBQATjsx-13" target="Q6jJ9rGlNbkxmBQATjsx-17">
          <mxGeometry relative="1" as="geometry">
            <Array as="points">
              <mxPoint x="322.73" y="72.5" />
            </Array>
          </mxGeometry>
        </mxCell>
        <mxCell id="Q6jJ9rGlNbkxmBQATjsx-17" value="管理事项" style="whiteSpace=wrap;html=1;fillColor=#d5e8d4;strokeColor=#82b366;rounded=1;strokeWidth=1;" vertex="1" parent="Q6jJ9rGlNbkxmBQATjsx-6">
          <mxGeometry x="358.73" y="50" width="60" height="30" as="geometry" />
        </mxCell>
        <mxCell id="Q6jJ9rGlNbkxmBQATjsx-20" style="edgeStyle=orthogonalEdgeStyle;rounded=0;orthogonalLoop=1;jettySize=auto;html=1;entryX=0;entryY=0.333;entryDx=0;entryDy=0;entryPerimeter=0;exitX=0.502;exitY=1.015;exitDx=0;exitDy=0;exitPerimeter=0;" edge="1" parent="Q6jJ9rGlNbkxmBQATjsx-6" source="Q6jJ9rGlNbkxmBQATjsx-13" target="Q6jJ9rGlNbkxmBQATjsx-15">
          <mxGeometry relative="1" as="geometry">
            <Array as="points">
              <mxPoint x="322.73" y="122.5" />
            </Array>
          </mxGeometry>
        </mxCell>
        <mxCell id="Q6jJ9rGlNbkxmBQATjsx-31" value="" style="edgeStyle=orthogonalEdgeStyle;rounded=0;orthogonalLoop=1;jettySize=auto;html=1;" edge="1" parent="Q6jJ9rGlNbkxmBQATjsx-6" source="Q6jJ9rGlNbkxmBQATjsx-21" target="Q6jJ9rGlNbkxmBQATjsx-30">
          <mxGeometry relative="1" as="geometry" />
        </mxCell>
        <mxCell id="Q6jJ9rGlNbkxmBQATjsx-21" value="" style="rhombus;whiteSpace=wrap;html=1;fillColor=#fff2cc;strokeColor=#d6b656;rounded=0;strokeWidth=1;" vertex="1" parent="Q6jJ9rGlNbkxmBQATjsx-6">
          <mxGeometry x="698.73" y="80" width="35" height="35" as="geometry" />
        </mxCell>
        <mxCell id="Q6jJ9rGlNbkxmBQATjsx-22" style="edgeStyle=orthogonalEdgeStyle;rounded=0;orthogonalLoop=1;jettySize=auto;html=1;" edge="1" parent="Q6jJ9rGlNbkxmBQATjsx-6" source="Q6jJ9rGlNbkxmBQATjsx-17" target="Q6jJ9rGlNbkxmBQATjsx-21">
          <mxGeometry relative="1" as="geometry">
            <Array as="points">
              <mxPoint x="438.73" y="65.25" />
              <mxPoint x="438.73" y="97.25" />
            </Array>
          </mxGeometry>
        </mxCell>
        <mxCell id="Q6jJ9rGlNbkxmBQATjsx-23" style="edgeStyle=orthogonalEdgeStyle;rounded=0;orthogonalLoop=1;jettySize=auto;html=1;entryX=0.014;entryY=0.498;entryDx=0;entryDy=0;entryPerimeter=0;" edge="1" parent="Q6jJ9rGlNbkxmBQATjsx-6" source="Q6jJ9rGlNbkxmBQATjsx-15" target="Q6jJ9rGlNbkxmBQATjsx-21">
          <mxGeometry relative="1" as="geometry">
            <Array as="points">
              <mxPoint x="438.73" y="127.5" />
              <mxPoint x="438.73" y="97.5" />
            </Array>
          </mxGeometry>
        </mxCell>
        <mxCell id="Q6jJ9rGlNbkxmBQATjsx-27" value="&lt;span style=&quot;font-size: 6px;&quot;&gt;&lt;b&gt;登录&lt;/b&gt;&lt;/span&gt;" style="rounded=1;whiteSpace=wrap;html=1;fillColor=#d5e8d4;strokeColor=#82b366;strokeWidth=1;" vertex="1" parent="Q6jJ9rGlNbkxmBQATjsx-6">
          <mxGeometry x="63.980000000000004" y="81.25" width="46" height="30" as="geometry" />
        </mxCell>
        <mxCell id="Q6jJ9rGlNbkxmBQATjsx-30" value="退出登录" style="whiteSpace=wrap;html=1;fillColor=#d5e8d4;strokeColor=#82b366;rounded=1;strokeWidth=1;" vertex="1" parent="Q6jJ9rGlNbkxmBQATjsx-6">
          <mxGeometry x="748.73" y="82.5" width="60" height="30" as="geometry" />
        </mxCell>
        <mxCell id="Q6jJ9rGlNbkxmBQATjsx-29" value="" style="rhombus;whiteSpace=wrap;html=1;fillColor=#fff2cc;strokeColor=#d6b656;rounded=0;strokeWidth=1;" vertex="1" parent="Q6jJ9rGlNbkxmBQATjsx-6">
          <mxGeometry x="154.73000000000002" y="80" width="35" height="35" as="geometry" />
        </mxCell>
        <mxCell id="Q6jJ9rGlNbkxmBQATjsx-24" value="" style="ellipse;whiteSpace=wrap;html=1;aspect=fixed;" vertex="1" parent="Q6jJ9rGlNbkxmBQATjsx-6">
          <mxGeometry x="706.23" y="30" width="20" height="20" as="geometry" />
        </mxCell>
        <mxCell id="Q6jJ9rGlNbkxmBQATjsx-26" value="" style="ellipse;whiteSpace=wrap;html=1;aspect=fixed;fillColor=#000000;" vertex="1" parent="Q6jJ9rGlNbkxmBQATjsx-6">
          <mxGeometry x="708.73" y="32.5" width="15" height="15" as="geometry" />
        </mxCell>
        <mxCell id="Q6jJ9rGlNbkxmBQATjsx-25" value="" style="edgeStyle=orthogonalEdgeStyle;rounded=0;orthogonalLoop=1;jettySize=auto;html=1;" edge="1" parent="Q6jJ9rGlNbkxmBQATjsx-6" source="Q6jJ9rGlNbkxmBQATjsx-21" target="Q6jJ9rGlNbkxmBQATjsx-24">
          <mxGeometry relative="1" as="geometry" />
        </mxCell>
        <mxCell id="Q6jJ9rGlNbkxmBQATjsx-32" value="" style="ellipse;whiteSpace=wrap;html=1;aspect=fixed;" vertex="1" parent="Q6jJ9rGlNbkxmBQATjsx-6">
          <mxGeometry x="834" y="87.5" width="20" height="20" as="geometry" />
        </mxCell>
        <mxCell id="Q6jJ9rGlNbkxmBQATjsx-33" value="" style="ellipse;whiteSpace=wrap;html=1;aspect=fixed;fillColor=#000000;" vertex="1" parent="Q6jJ9rGlNbkxmBQATjsx-6">
          <mxGeometry x="836.5" y="90" width="15" height="15" as="geometry" />
        </mxCell>
        <mxCell id="Q6jJ9rGlNbkxmBQATjsx-34" style="edgeStyle=orthogonalEdgeStyle;rounded=0;orthogonalLoop=1;jettySize=auto;html=1;entryX=0;entryY=0.5;entryDx=0;entryDy=0;entryPerimeter=0;" edge="1" parent="Q6jJ9rGlNbkxmBQATjsx-6" source="Q6jJ9rGlNbkxmBQATjsx-30" target="Q6jJ9rGlNbkxmBQATjsx-32">
          <mxGeometry relative="1" as="geometry" />
        </mxCell>
        <mxCell id="Q6jJ9rGlNbkxmBQATjsx-7" value="平台" style="swimlane;startSize=20;horizontal=0;html=1;fillColor=#dae8fc;strokeColor=#6c8ebf;" vertex="1" parent="Q6jJ9rGlNbkxmBQATjsx-5">
          <mxGeometry x="20" y="200" width="970" height="120" as="geometry" />
        </mxCell>
      </root>
    </mxGraphModel>
  </diagram>
</mxfile>
